<?xml version="1.0" encoding="utf-8"?>
<!-- Generator: Adobe Illustrator 25.4.1, SVG Export Plug-In . SVG Version: 6.00 Build 0)  -->
<svg version="1.1" id="Layer_1" xmlns="http://www.w3.org/2000/svg" xmlns:xlink="http://www.w3.org/1999/xlink" x="0px" y="0px"
	 viewBox="0 0 513.8 90" style="enable-background:new 0 0 513.8 90;" xml:space="preserve">
<path d="M277.7,40.3c-1.5,4.2-3,8.4-4.5,12.5c-4.1,11.4-8.2,22.8-12.3,34.2c-0.2,0.5-0.9,0.9-1.5,1.2c-0.4,0.2-0.9,0-1.3,0.1
	c-2.3,0.4-3.2-0.7-3.9-2.7c-5-14.6-10-29.2-15-43.7c-0.3-0.5-0.6-1-0.9-1.4c-0.2,0.6-0.4,1.3-0.6,1.9c-1.9,13.1-3.7,26.3-5.6,39.4
	c-0.3,1-0.4,2-0.5,3c0.1,2.3-1.1,2.7-3.1,2.6c-4.1-0.1-8.2,0-12.5,0c0.2-1.7,0.4-3.1,0.7-4.5c1.3-7.9,2.7-15.8,4-23.8
	s2.5-15.9,3.8-23.8c1.4-8.6,2.8-17.1,4.3-25.7c0.3-0.7,0.9-1.2,1.6-1.4c2.7-0.1,5.4-0.1,8.1,0c0.7,0.2,1.4,0.7,1.7,1.3
	c2.6,6.8,5.2,13.6,7.7,20.4c3.5,9.2,7,18.5,10.4,27.7c0.1,0.2,0.2,0.3,0.6,0.7c0.7-1.8,1.4-3.4,1.9-5.1c4.3-11.9,8.5-23.7,12.8-35.6
	c1-2.6,2-5.2,2.8-7.9c0.2-1.1,1.3-1.8,2.4-1.7c2.4,0,4.7,0.1,7.1,0c1.4-0.1,2.1,0.4,2.3,1.8c0.7,5.1,1.5,10.2,2.2,15.3
	c1.3,8.9,2.6,17.8,3.9,26.7c1.6,11.3,3.3,22.6,5,33.9c0.2,1.2-0.4,1.5-1.3,1.5c-4.1,0-8.2,0-12.3,0c-1.1,0-1.4-0.5-1.6-1.5
	c-0.8-6.1-1.6-12.3-2.4-18.4c-1.1-8.7-2.2-17.3-3.4-26c-0.1-0.3-0.2-0.7-0.3-1L277.7,40.3z"/>
<path d="M79,40.3c2.2-1.3,4-2.8,6-3.6c6.7-2.7,16.5-1.6,20.9,4.8c2.5,3.8,3.7,8.3,3.7,12.9c0.2,10.5,0.1,20.9,0.1,31.4
	c0,1.1-0.4,1.5-1.4,1.5c-3.8,0-7.7,0-11.5,0c-1.5,0-1.6-0.8-1.6-2c0-9.1,0-18.1-0.1-27.2c-0.1-2.1-0.3-4.2-0.8-6.2
	c-0.6-3-2.6-4.6-5.6-4.9s-5.6,0.3-7.2,2.9c-1.1,1.7-1.8,3.6-2.1,5.6C79,62.1,79,68.9,78.9,75.6c0,3.2-0.1,6.4,0,9.6c0,1.6-0.5,2-2,2
	c-3.5-0.1-7-0.1-10.6,0c-1.4,0-1.9-0.3-1.9-1.8c0.1-27.7,0.1-55.4,0-83.1c0-1.4,0.5-1.9,1.9-1.9c3.5,0.1,6.9,0.1,10.4,0
	c1.6,0,2.2,0.5,2.2,2.2c-0.1,11.8,0,23.6,0,35.4C78.9,38.8,79,39.5,79,40.3z"/>
<path d="M55.6,29.7c-2.4-1.7-4.5-3.6-7-4.8c-10.9-5.5-22.6-1.9-28.7,8.8c-6.3,10.9-5,25.3,3,34.1c7,8,19,9.4,27.7,3.2
	c1.7-1.1,3.2-2.4,5-3.8c0.1,0.4,0.2,0.9,0.2,1.3c0,4.8,0.1,9.6-0.1,14.4c0,0.9-0.5,1.7-1.2,2.2c-6.4,2.9-12.9,4.7-20,3.9
	c-11-1.1-21-7.2-27-16.5C0.4,61.9-1.2,50.2,2,37.8c3.1-11.9,9.9-21.1,21.2-26.4c10.4-4.9,21.1-4.6,31.5,0.5c0.7,0.4,1.1,1.1,1.3,1.8
	c0.1,5.2,0,10.3,0,15.5C55.8,29.4,55.7,29.6,55.6,29.7z"/>
<path d="M191.9,66.8c0,0.7-0.1,1.3-0.1,2c0,5.5,0,11,0,16.5c0,1.4-0.3,2-1.8,2c-3.6-0.1-7.2-0.1-10.8,0c-1.6,0-1.9-0.6-1.9-2
	c0-19.2,0-38.4,0-57.6c0-8.4,0-16.7,0-25.1c0-1.6,0.4-2.2,2.1-2.1c3.4,0.1,6.8,0.1,10.2,0c1.6,0,2.2,0.5,2.2,2.2
	c-0.1,16.7-0.1,33.4,0,50.2c0,0.6,0.1,1.1,0.1,2.2c0.9-0.8,1.4-1.3,1.9-1.8c4.1-4.9,8.1-9.8,12.1-14.8c0.7-0.9,1.8-1.5,2.9-1.4
	c2.9,0.1,5.8,0.1,8.7,0c1.3,0,1.8,0.3,1.6,1.7c-0.5,4-1.5,7.6-4.9,10.4c-3,2.6-5.6,5.8-8.5,8.6c-1.1,1.1-1,1.8-0.1,2.9
	c2.4,2.8,4.7,5.8,7,8.6c0.8,0.9,1.1,2.2,0.8,3.4c-0.8,4.2-1.4,8.6-2.2,12.8c-0.1,0.6-0.6,1.8-0.9,1.8c-1,0.1-1.9-0.2-2.6-0.8
	c-3.5-4.3-6.9-8.7-10.2-13.1c-1.4-1.8-2.8-3.6-4.2-5.5c-0.2-0.5-0.4-1-0.5-1.5L191.9,66.8z"/>
<path d="M152.4,83.4c-1.8,1.4-3.8,2.6-5.8,3.7c-8.6,3.9-18.5,1.2-24.7-6.3c-8.7-10.7-8.3-28.3,0.9-38.5c7.2-8.1,20.5-9.6,28.6-1.9
	c0.3,0.2,0.7,0.4,1,0.5c0.1-0.6,0.2-1.3,0.2-1.9c-0.2-1.6,0.5-2,2-2c3.5,0.1,7.1,0.1,10.6,0c1.5,0,1.8,0.5,1.8,1.9
	c0,15.5-0.1,30.9-0.1,46.4c0,1.7-0.6,2.1-2.1,2c-3.3-0.1-6.5-0.1-9.8,0c-1.9,0.1-2.8-0.5-2.5-2.5C152.6,84.3,152.5,83.8,152.4,83.4z
	 M154.5,61.9c-0.8-2.4-1.3-5.1-2.4-7.3c-2-3.9-5.1-6.4-9.8-6.5s-7.9,2.4-10.1,6.4c-3.1,5.7-2.4,12.8,1.9,17.8
	c3.6,4.5,10.2,5.1,14.7,1.5c0.4-0.3,0.7-0.6,1.1-1C152.5,69.8,154.2,66,154.5,61.9z"/>
<path d="M456.6,64.4c-4.8,0-9.6,0.1-14.4,0c-1.7,0-2.4,0.6-2,2.3c0.3,1.6,0.7,3.2,1.2,4.8c1.2,3.3,3.4,5.7,7.1,6.2
	c4.1,0.6,7.5-0.9,9.7-4.4c1.1-1.9,2.3-2.2,4.4-1.8c2.7,0.6,5.6,0.9,8.3,1.3c1.5,0.2,2.1,0.7,1.3,2.4c-3.3,7.1-8.9,11.3-16.4,13.1
	c-9.1,2.2-20.1-1-25.6-8.5c-2.4-3.1-4-6.7-4.6-10.6c-1.4-8.4-0.7-16.4,3.9-23.8c3.8-6,9.4-9.1,16.3-9.8c9.4-0.9,17.6,1.2,23.1,9.6
	c3,4.6,4.1,9.7,4.3,15.1c0.2,5,0.4,4.2-4.1,4.2C465,64.5,460.8,64.4,456.6,64.4z M450.1,55.4h6.9c2.8,0,3-0.1,2-2.8
	c-1.3-3.6-3.4-6.7-7.6-7.1c-5.2-0.5-9.9,3.3-10.5,8.4c-0.1,1.1,0.4,1.5,1.4,1.5C444.8,55.4,447.5,55.4,450.1,55.4L450.1,55.4z"/>
<path d="M321.8,89c-7,0-11.9-1.4-16.3-4.3c-0.9-0.7-1.6-1.7-1.8-2.9c-1.4-11.2-2.7-22.4-4.1-33.6c-0.4-2.3,0.4-4.6,2.2-6.1
	c6-5.4,13-7.4,20.9-6.8c9.4,0.7,16.8,5,21.2,13.6c5.4,10.8,3.7,26.1-6.4,34.2C333,86.8,327.5,88.8,321.8,89z M308.5,62.1l-0.5,0.2
	c0.8,2.5,1.2,5.2,2.5,7.5c4.2,7.9,13.6,8.6,18.7,1.6c4.5-6.2,3.8-14.8-1.5-20.3c-4-3.8-10.1-3.9-14.3-0.4
	C310.2,53.6,308.4,57.7,308.5,62.1z"/>
<path d="M346.2,37.1c0.6-0.1,1-0.1,1.5-0.1c4.1,0,8.2,0,12.3,0c1.1-0.1,2.1,0.5,2.5,1.6c3.5,8.6,7,17.1,10.6,25.6
	c0,0.1,0.2,0.2,0.5,0.5c0.7-1.6,1.3-3.2,1.9-4.7c2.7-7.2,5.3-14.5,8-21.7c0.2-0.5,0.8-1.1,1.3-1.2c4.8-0.1,9.6-0.1,14.6-0.1
	c-0.1,0.6-0.2,1.1-0.4,1.6c-5.8,13-11.7,25.9-17.6,38.8c-1.3,3-2.7,5.9-4,8.9c-0.4,1.2-1.6,2-2.9,2c-4.3,0.7-6.1-1.1-7.8-5
	c-6.6-15.3-13.6-30.3-20.5-45.5C346.2,37.7,346.2,37.6,346.2,37.1z"/>
<path d="M495.2,89.1c-7.9-0.3-13.4-2.6-18-7c-1.2-1.1-1.3-2-0.2-3.2c1.5-1.8,3-3.7,4.3-5.6c0.8-1.1,1.3-1,2.3-0.1
	c2.8,2.5,5.7,4.8,9.8,4.6c2.5,0,4.7-1.8,5.3-4.2c0.6-2.1-0.4-4.3-2.8-5.5c-3-1.5-6.1-2.7-9-4.2c-8.6-4.3-10.9-14.8-5-22.4
	c2.9-3.9,7.4-6.1,12.3-6.1c5.3-0.2,10.6,1.2,15.2,4c1.3,0.8,1.7,1.5,0.5,2.8c-1.4,1.7-2.8,3.5-4,5.4c-0.8,1.1-1.4,1.2-2.5,0.3
	c-1.7-1.5-3.9-2.3-6.1-2.3c-2-0.1-3.9,1.2-4.5,3.2c-0.5,1.9,0.2,3.6,2.4,4.6c2.8,1.3,5.6,2.4,8.4,3.7c4.2,2,7.7,4.6,9.1,9.2
	c2.5,8.5-2,17.5-10.2,20.8C500.1,87.9,497.7,88.5,495.2,89.1z"/>
<path d="M417.5,62.1c0,7.8,0,15.6,0,23.3c0,1.3-0.3,1.9-1.7,1.9c-3.6-0.1-7.3,0-10.9,0c-1.3,0-1.8-0.4-1.8-1.8c0-15.6,0-31.1,0-46.7
	c0-1.3,0.4-1.9,1.7-1.8c3.6,0.1,7.3,0,10.9,0c1.3,0,1.8,0.4,1.8,1.8C417.5,46.5,417.5,54.3,417.5,62.1z"/>
<path d="M410.4,7.4c4.7,0,8.5,3.9,8.4,8.6s-3.9,8.5-8.6,8.4c-4.6,0-8.4-3.7-8.5-8.3c0-0.1,0-0.1,0-0.2c0-4.7,3.8-8.5,8.5-8.5
	C410.4,7.4,410.4,7.4,410.4,7.4z"/>
</svg>
